<svg xmlns="http://www.w3.org/2000/svg" xmlns:xlink="http://www.w3.org/1999/xlink" width="1000" zoomAndPan="magnify" viewBox="0 0 750 374.999991" height="500" preserveAspectRatio="xMidYMid meet" version="1.0"><defs><g/><clipPath id="f918e3ec76"><path d="M 44.234375 86.015625 L 138 86.015625 L 138 180 L 44.234375 180 Z M 44.234375 86.015625 " clip-rule="nonzero"/></clipPath><clipPath id="5ebd3b6d7e"><path d="M 141.835938 86.015625 L 236 86.015625 L 236 180 L 141.835938 180 Z M 141.835938 86.015625 " clip-rule="nonzero"/></clipPath></defs><g clip-path="url(#f918e3ec76)"><path fill="#0089b6" d="M 91.039062 86.015625 C 65.179688 86.015625 44.234375 106.957031 44.234375 132.816406 C 44.234375 158.675781 65.179688 179.621094 91.039062 179.621094 C 116.894531 179.621094 137.839844 158.675781 137.839844 132.816406 C 137.839844 106.957031 116.894531 86.015625 91.039062 86.015625 Z M 91.039062 170.257812 C 70.351562 170.257812 53.59375 153.503906 53.59375 132.816406 C 53.59375 112.128906 70.351562 95.375 91.039062 95.375 C 111.722656 95.375 128.480469 112.128906 128.480469 132.816406 C 128.480469 153.503906 111.722656 170.257812 91.039062 170.257812 Z M 91.039062 170.257812 " fill-opacity="1" fill-rule="nonzero"/></g><g clip-path="url(#5ebd3b6d7e)"><path fill="#0089b6" d="M 188.640625 86.015625 C 162.78125 86.015625 141.835938 106.957031 141.835938 132.816406 C 141.835938 158.675781 162.78125 179.621094 188.640625 179.621094 C 214.5 179.621094 235.441406 158.675781 235.441406 132.816406 C 235.441406 106.957031 214.5 86.015625 188.640625 86.015625 Z M 188.640625 170.257812 C 167.953125 170.257812 151.195312 153.503906 151.195312 132.816406 C 151.195312 112.128906 167.953125 95.375 188.640625 95.375 C 209.328125 95.375 226.082031 112.128906 226.082031 132.816406 C 226.082031 153.503906 209.328125 170.257812 188.640625 170.257812 Z M 188.640625 170.257812 " fill-opacity="1" fill-rule="nonzero"/></g><g fill="#d7e4eb" fill-opacity="1"><g transform="translate(18.208424, 260.832557)"><g><path d="M 5.683594 -64.15625 L 5.683594 0 L 15.03125 0 L 15.03125 -28.320312 L 50.867188 -28.320312 L 50.867188 -35.835938 L 15.03125 -35.835938 L 15.03125 -56.640625 L 58.839844 -56.640625 L 58.839844 -64.15625 Z M 5.683594 -64.15625 "/></g></g></g><g fill="#d7e4eb" fill-opacity="1"><g transform="translate(78.142183, 260.832557)"><g><path d="M 14.847656 -56.640625 L 36.75 -56.640625 C 45.367188 -56.640625 50.5 -51.964844 50.5 -43.898438 C 50.5 -35.835938 45.457031 -31.160156 36.75 -31.160156 L 14.847656 -31.160156 Z M 14.847656 -23.738281 L 41.609375 -23.738281 C 46.375 -23.738281 50.5 -19.613281 50.5 -14.847656 L 50.5 -3.484375 C 50.5 -2.199219 51.046875 -0.457031 52.058594 0 L 61.773438 0 C 60.488281 -0.550781 59.847656 -2.109375 59.847656 -3.484375 L 59.847656 -14.480469 C 59.847656 -21.078125 56.640625 -26.210938 50.683594 -28.226562 C 56.640625 -31.070312 59.847656 -36.566406 59.847656 -44.910156 C 59.847656 -57.464844 52.058594 -64.15625 39.316406 -64.15625 L 5.5 -64.15625 L 5.5 0 L 14.847656 0 Z M 14.847656 -23.738281 "/></g></g></g><g fill="#d7e4eb" fill-opacity="1"><g transform="translate(143.574472, 260.832557)"><g><path d="M 5.683594 -64.15625 L 5.683594 0 L 58.839844 0 L 58.839844 -7.515625 L 15.03125 -7.515625 L 15.03125 -28.320312 L 50.867188 -28.320312 L 50.867188 -35.835938 L 15.03125 -35.835938 L 15.03125 -56.640625 L 58.839844 -56.640625 L 58.839844 -64.15625 Z M 5.683594 -64.15625 "/></g></g></g><g fill="#d7e4eb" fill-opacity="1"><g transform="translate(205.157792, 260.832557)"><g><path d="M 5.683594 -64.15625 L 5.683594 0 L 58.839844 0 L 58.839844 -7.515625 L 15.03125 -7.515625 L 15.03125 -28.320312 L 50.867188 -28.320312 L 50.867188 -35.835938 L 15.03125 -35.835938 L 15.03125 -56.640625 L 58.839844 -56.640625 L 58.839844 -64.15625 Z M 5.683594 -64.15625 "/></g></g></g><g fill="#d7e4eb" fill-opacity="1"><g transform="translate(266.741111, 260.832557)"><g><path d="M 5.589844 -64.15625 L 5.589844 0 L 58.746094 0 L 58.746094 -7.515625 L 15.03125 -7.515625 L 15.03125 -64.15625 Z M 5.589844 -64.15625 "/></g></g></g><g fill="#d7e4eb" fill-opacity="1"><g transform="translate(326.125018, 260.832557)"><g><path d="M 27.128906 -64.15625 L 0.917969 0 L 10.90625 0 L 17.871094 -16.773438 L 49.765625 -16.773438 L 56.640625 0 L 66.722656 0 L 40.507812 -64.15625 Z M 46.648438 -24.285156 L 20.988281 -24.285156 L 33.820312 -55.449219 Z M 46.648438 -24.285156 "/></g></g></g><g fill="#d7e4eb" fill-opacity="1"><g transform="translate(393.573415, 260.832557)"><g><path d="M 5.683594 -64.15625 L 5.683594 0 L 14.9375 0 L 14.9375 -50.773438 L 57.648438 0 L 66.902344 0 L 66.902344 -64.15625 L 57.464844 -64.15625 L 57.464844 -13.378906 L 14.847656 -64.15625 Z M 5.683594 -64.15625 "/></g></g></g><g fill="#d7e4eb" fill-opacity="1"><g transform="translate(465.787184, 260.832557)"><g><path d="M 38.402344 -65.621094 C 15.945312 -65.621094 4.675781 -52.789062 4.675781 -32.078125 C 4.675781 -11.363281 15.945312 1.464844 38.402344 1.464844 C 56.179688 1.464844 66.8125 -6.414062 70.476562 -19.613281 L 61.039062 -19.613281 C 57.648438 -10.996094 50.222656 -6.050781 38.585938 -6.050781 C 21.996094 -6.050781 14.113281 -15.945312 14.113281 -32.078125 C 14.113281 -48.207031 21.996094 -58.105469 38.585938 -58.105469 C 50.222656 -58.105469 57.648438 -53.15625 61.039062 -44.542969 L 70.476562 -44.542969 C 66.8125 -57.738281 56.179688 -65.621094 38.402344 -65.621094 Z M 38.402344 -65.621094 "/></g></g></g><g fill="#d7e4eb" fill-opacity="1"><g transform="translate(540.566913, 260.832557)"><g><path d="M 5.683594 -64.15625 L 5.683594 0 L 58.839844 0 L 58.839844 -7.515625 L 15.03125 -7.515625 L 15.03125 -28.320312 L 50.867188 -28.320312 L 50.867188 -35.835938 L 15.03125 -35.835938 L 15.03125 -56.640625 L 58.839844 -56.640625 L 58.839844 -64.15625 Z M 5.683594 -64.15625 "/></g></g></g><g fill="#d7e4eb" fill-opacity="1"><g transform="translate(602.150201, 260.832557)"><g><path d="M 14.847656 -56.640625 L 36.75 -56.640625 C 45.367188 -56.640625 50.5 -51.964844 50.5 -43.898438 C 50.5 -35.835938 45.457031 -31.160156 36.75 -31.160156 L 14.847656 -31.160156 Z M 14.847656 -23.738281 L 41.609375 -23.738281 C 46.375 -23.738281 50.5 -19.613281 50.5 -14.847656 L 50.5 -3.484375 C 50.5 -2.199219 51.046875 -0.457031 52.058594 0 L 61.773438 0 C 60.488281 -0.550781 59.847656 -2.109375 59.847656 -3.484375 L 59.847656 -14.480469 C 59.847656 -21.078125 56.640625 -26.210938 50.683594 -28.226562 C 56.640625 -31.070312 59.847656 -36.566406 59.847656 -44.910156 C 59.847656 -57.464844 52.058594 -64.15625 39.316406 -64.15625 L 5.5 -64.15625 L 5.5 0 L 14.847656 0 Z M 14.847656 -23.738281 "/></g></g></g><g fill="#0089b6" fill-opacity="1"><g transform="translate(667.590439, 260.832557)"><g><path d="M 25.753906 -73.320312 L 25.753906 -65.347656 C 11.273438 -63.878906 3.847656 -57.007812 3.847656 -46.558594 C 3.847656 -38.859375 7.972656 -33.175781 17.597656 -29.878906 L 39.410156 -22.546875 C 43.441406 -21.171875 44.542969 -19.519531 44.542969 -16.957031 C 44.542969 -12.648438 40.417969 -10.539062 33.636719 -10.539062 C 25.019531 -10.539062 19.980469 -13.199219 19.980469 -18.695312 L 2.933594 -18.695312 C 2.933594 -8.25 9.988281 -0.457031 25.753906 1.191406 L 25.753906 9.164062 L 38.585938 9.164062 L 38.585938 1.191406 C 54.164062 -0.273438 61.3125 -7.058594 61.3125 -17.414062 C 61.3125 -25.570312 57.921875 -30.609375 49.125 -33.453125 L 26.210938 -41.332031 C 22.636719 -42.617188 20.894531 -44.726562 20.894531 -47.566406 C 20.894531 -51.507812 24.46875 -53.613281 30.335938 -53.613281 C 38.585938 -53.613281 43.625 -50.5 43.625 -45.457031 L 60.488281 -45.457031 C 60.488281 -56.824219 53.066406 -63.695312 38.585938 -65.253906 L 38.585938 -73.320312 Z M 25.753906 -73.320312 "/></g></g></g><path stroke-linecap="round" transform="matrix(0, -0.75, 0.75, 0, 23.040895, 175.94467)" fill="none" stroke-linejoin="miter" d="M 6.499144 6.497556 L 113.410609 6.497556 " stroke="#0089b6" stroke-width="13" stroke-opacity="1" stroke-miterlimit="4"/></svg>